<svg width="135" height="40" viewBox="0 0 135 40" xmlns="http://www.w3.org/2000/svg"><title>app store</title><g fill="none" fill-rule="evenodd"><path d="M135 36.02c0 2.2-1.724 3.98-3.854 3.98H3.854C1.724 40 0 38.22 0 36.02V3.98C0 1.78 1.724 0 3.854 0h127.292C133.276 0 135 1.78 135 3.98v32.04z" fill="#000"/><g fill="#FFF"><path d="M30.3 19.8c0-3.2 2.6-4.8 2.8-4.9-1.5-2.2-3.9-2.5-4.7-2.5-2-.2-3.9 1.2-4.9 1.2-1 0-2.6-1.2-4.2-1.1-2.1 0-4.1 1.3-5.2 3.2-2.3 3.9-.6 9.7 1.6 12.9 1.1 1.6 2.4 3.3 4 3.2 1.6-.1 2.2-1 4.2-1 1.9 0 2.5 1 4.2 1 1.7 0 2.8-1.6 3.9-3.1 1.3-1.8 1.8-3.5 1.8-3.6-.1-.2-3.5-1.5-3.5-5.3zM27.1 10.3c.9-1.1 1.5-2.6 1.3-4.1-1.3.1-2.8.9-3.8 1.9-.8.9-1.5 2.5-1.3 3.9 1.4.2 2.9-.6 3.8-1.7z"/></g><g fill="#FFF"><path d="M53.8 31.5h-2.3l-1.2-3.9H46l-1.2 3.9h-2.2l4.3-13.3h2.6l4.3 13.3zM49.9 26l-1.1-3.5c-.1-.4-.3-1.2-.7-2.5-.1.6-.3 1.4-.6 2.5L46.4 26h3.5zM64.8 26.6c0 1.6-.4 2.9-1.3 3.9-.8.8-1.8 1.3-2.9 1.3-1.3 0-2.2-.5-2.7-1.4v5.1h-2.1V25.1c0-1 0-2.1-.1-3.2h1.9l.1 1.5c.7-1.1 1.8-1.7 3.2-1.7 1.1 0 2.1.4 2.8 1.3.7.9 1.1 2.1 1.1 3.6zm-2.1.1c0-.9-.2-1.7-.6-2.3-.5-.6-1.1-.9-1.9-.9-.5 0-1 .2-1.4.5-.4.4-.7.8-.8 1.4-.1.3-.1.5-.1.6v1.6c0 .7.2 1.3.6 1.8.4.5 1 .7 1.7.7.8 0 1.4-.3 1.9-.9.3-.7.6-1.5.6-2.5zM75.9 26.6c0 1.6-.4 2.9-1.3 3.9-.8.8-1.8 1.3-2.9 1.3-1.3 0-2.2-.5-2.7-1.4v5.1h-2.1V25.1c0-1 0-2.1-.1-3.2h1.9l.1 1.5c.7-1.1 1.8-1.7 3.2-1.7 1.1 0 2.1.4 2.8 1.3.7.9 1.1 2.1 1.1 3.6zm-2.2.1c0-.9-.2-1.7-.6-2.3-.5-.6-1.1-.9-1.9-.9-.5 0-1 .2-1.4.5-.4.4-.7.8-.8 1.4-.1.3-.1.5-.1.6v1.6c0 .7.2 1.3.6 1.8.4.5 1 .7 1.7.7.8 0 1.4-.3 1.9-.9.4-.7.6-1.5.6-2.5zM88.2 27.8c0 1.1-.4 2.1-1.2 2.8-.9.8-2.1 1.2-3.6 1.2-1.4 0-2.6-.3-3.4-.8l.5-1.8c.9.6 2 .9 3.1.9.8 0 1.4-.2 1.9-.5.4-.4.7-.8.7-1.5 0-.5-.2-1-.6-1.4-.4-.4-1-.7-1.8-1-2.3-.9-3.5-2.1-3.5-3.8 0-1.1.4-2 1.2-2.7.8-.7 1.9-1 3.3-1 1.2 0 2.2.2 3 .6l-.5 1.7c-.8-.4-1.6-.6-2.5-.6-.8 0-1.3.2-1.8.6-.4.3-.5.7-.5 1.2s.2 1 .6 1.3c.4.3 1 .7 1.9 1 1.1.5 2 1 2.5 1.6.4.5.7 1.3.7 2.2zM95.3 23.5h-2.4v4.7c0 1.2.4 1.8 1.2 1.8.4 0 .7 0 .9-.1l.1 1.6c-.4.2-1 .2-1.7.2-.8 0-1.5-.3-2-.8s-.7-1.4-.7-2.6v-4.8h-1.4v-1.6h1.4v-1.8l2.1-.6v2.4h2.3c.2 0 .2 1.6.2 1.6zM105.9 26.6c0 1.5-.4 2.7-1.3 3.6-.9 1-2.1 1.5-3.5 1.5s-2.5-.5-3.4-1.4c-.9-.9-1.3-2.1-1.3-3.5 0-1.5.4-2.7 1.3-3.7.9-.9 2-1.4 3.5-1.4 1.4 0 2.5.5 3.4 1.4.8.9 1.3 2.1 1.3 3.5zm-2.3.1c0-.9-.2-1.6-.6-2.3-.4-.8-1.1-1.1-1.9-1.1-.9 0-1.5.4-2 1.1-.4.6-.6 1.4-.6 2.3 0 .9.2 1.6.6 2.3.5.8 1.1 1.1 1.9 1.1.8 0 1.5-.4 1.9-1.2.5-.6.7-1.3.7-2.2zM112.8 23.8c-.2 0-.4-.1-.7-.1-.8 0-1.3.3-1.7.9-.4.5-.5 1.1-.5 1.9v5h-2.1v-6.6c0-1.1 0-2.1-.1-3h1.9l.1 1.8h.1c.2-.6.6-1.1 1.1-1.5.5-.3 1-.5 1.5-.5h.5c-.1.1-.1 2.1-.1 2.1zM122.3 26.3c0 .4 0 .7-.1 1h-6.4c0 .9.3 1.7.9 2.2.5.4 1.2.7 2.1.7.9 0 1.8-.2 2.6-.5l.3 1.5c-.9.4-2 .6-3.2.6-1.5 0-2.7-.4-3.5-1.3-.8-.9-1.3-2-1.3-3.5 0-1.4.4-2.7 1.2-3.6.8-1 1.9-1.5 3.4-1.5 1.4 0 2.4.5 3.1 1.5.6.6.9 1.7.9 2.9zm-2-.6c0-.6-.1-1.2-.4-1.6-.4-.6-.9-.9-1.7-.9-.7 0-1.3.3-1.7.9-.4.5-.6 1-.6 1.7l4.4-.1z"/></g><path d="M44.413 12.935v-.814c.683.253 1.274.38 1.773.38.443 0 .797-.112 1.062-.335.266-.223.398-.52.398-.89 0-.444-.174-.784-.523-1.017-.35-.233-.86-.35-1.53-.35h-.138v-.65h.128c.6 0 1.068-.11 1.4-.33.33-.217.496-.526.496-.925 0-.317-.113-.554-.337-.713-.225-.158-.56-.237-1.006-.237-.466 0-1.004.113-1.614.338v-.747c.56-.18 1.116-.272 1.667-.272.713 0 1.264.136 1.654.408.39.27.586.656.586 1.155 0 .77-.473 1.296-1.417 1.575.507.082.903.272 1.186.57.282.297.423.67.423 1.115 0 .572-.232 1.05-.697 1.436-.465.385-1.04.578-1.727.578-.617 0-1.212-.09-1.787-.273zm7.915-.497c-.52.478-1.02.717-1.5.717-.396 0-.725-.124-.986-.372-.26-.247-.392-.56-.392-.94 0-.52.22-.922.658-1.202.44-.28 1.067-.42 1.886-.42h.206v-.576c0-.554-.284-.83-.853-.83-.458 0-.952.14-1.483.42V8.52c.584-.238 1.13-.357 1.64-.357.535 0 .93.122 1.183.362s.38.615.38 1.122v2.165c0 .495.153.742.458.742.038 0 .094-.005.167-.017l.06.48c-.195.093-.412.14-.65.14-.404 0-.663-.24-.774-.717zm-.128-.47V10.73l-.29-.008c-.475 0-.86.09-1.153.27-.293.18-.44.418-.44.71 0 .21.074.385.22.53.147.143.326.215.537.215.36 0 .736-.16 1.126-.48zm2.64 1.077V8.267h3.476v.76h-2.61v4.018h-.866zm4.453 1.738V8.267h.867v.898c.355-.67.887-1.004 1.597-1.004.575 0 1.027.21 1.357.63.33.42.495.993.495 1.72 0 .793-.188 1.432-.562 1.917-.374.485-.866.728-1.476.728-.566 0-1.037-.217-1.412-.65v2.278h-.867zm.867-2.877c.446.4.87.598 1.276.598.833 0 1.25-.635 1.25-1.905 0-1.122-.37-1.682-1.11-1.682-.484 0-.956.263-1.416.788v2.2zm4.457 2.877v-.76h.123c.463 0 .78-.06.948-.175.17-.116.326-.383.473-.803l-1.847-4.778h.933l1.386 3.59h.01l1.437-3.59h.818l-1.87 4.668c-.323.807-.617 1.316-.882 1.53-.266.212-.742.318-1.428.318h-.1zm4.677-1.835v-.73c.457.176.928.264 1.412.264.337 0 .61-.077.82-.23.21-.155.315-.355.315-.602 0-.29-.115-.508-.346-.653-.232-.145-.58-.218-1.043-.218h-.113v-.573h.145c.41 0 .72-.058.926-.174.207-.115.31-.29.31-.52 0-.23-.092-.402-.277-.518-.184-.116-.46-.174-.83-.174-.37 0-.78.082-1.233.243v-.7c.42-.134.883-.202 1.39-.202.576 0 1.025.104 1.35.31.323.205.485.49.485.857 0 .232-.073.444-.22.636-.146.192-.365.366-.655.52.34.107.596.257.768.452.17.196.257.435.257.72 0 .43-.197.79-.592 1.073-.394.285-.89.427-1.485.427-.387 0-.847-.07-1.38-.207zm4.818.097V8.267h.814v3.617l2.226-3.617h.867v4.778h-.815V9.43l-2.222 3.615h-.87zm6.573 0V8.962H79v-.695h4.237v.695h-1.685v4.083h-.867zm7.027-.154c-.58.177-1.078.265-1.492.265-.704 0-1.278-.234-1.722-.702-.445-.467-.667-1.074-.667-1.82 0-.723.197-1.317.588-1.78.392-.464.893-.696 1.503-.696.58 0 1.025.205 1.34.616.316.41.474.994.474 1.75l-.005.27h-3.015c.126 1.135.682 1.702 1.668 1.702.36 0 .804-.097 1.33-.29v.686zm-2.957-2.75h2.107c0-.887-.33-1.332-.994-1.332-.666 0-1.037.445-1.113 1.333zm6.287 2.905V8.267h1.663c.505 0 .883.086 1.136.26.253.173.38.432.38.778 0 .294-.077.544-.23.75-.152.207-.38.372-.686.495.37.12.647.288.83.502.186.214.28.477.28.788 0 .378-.138.674-.41.886-.273.213-.65.32-1.127.32h-1.835zm.863-.65h.36c.49 0 .82-.044.986-.13.168-.087.252-.255.252-.505 0-.266-.11-.483-.328-.65-.218-.164-.505-.247-.86-.247h-.41v1.53zm0-2.104h.435c.66 0 .99-.268.99-.804 0-.188-.078-.33-.235-.425-.157-.094-.39-.142-.702-.142h-.488v1.373z" fill="#FFF"/></g></svg>